<?xml version="1.0" encoding="utf-8"?>
<!-- Generator: Adobe Illustrator 16.0.3, SVG Export Plug-In . SVG Version: 6.00 Build 0)  -->
<!DOCTYPE svg PUBLIC "-//W3C//DTD SVG 1.1//EN" "http://www.w3.org/Graphics/SVG/1.1/DTD/svg11.dtd">
<svg version="1.1" id="Camada_1" xmlns="http://www.w3.org/2000/svg" xmlns:xlink="http://www.w3.org/1999/xlink" x="0px" y="0px"
	 width="50px" height="50px" viewBox="0 0 50 50" enable-background="new 0 0 50 50" xml:space="preserve">
<g>
	<path fill="#78C158" d="M30.706,5.361c0.048-0.052,0.092-0.107,0.132-0.171l1.938-3.141c0.242-0.392,0.219-0.846-0.053-1.013
		c-0.271-0.167-0.688,0.015-0.93,0.407l-1.938,3.141c-0.068,0.11-0.113,0.226-0.139,0.338c-1.619-0.636-3.562-1.023-5.891-1.023
		c-2.168,0-3.985,0.334-5.511,0.892c-0.027-0.092-0.067-0.185-0.123-0.275l-1.938-3.141c-0.242-0.392-0.658-0.574-0.93-0.407
		c-0.271,0.168-0.294,0.621-0.052,1.013l1.938,3.141c0.022,0.036,0.047,0.067,0.071,0.1c-6.827,3.228-6.915,11.251-6.915,11.251
		l27.429,0.034C37.796,16.506,37.392,8.682,30.706,5.361z M17.897,11.327c-0.678,0-1.227-0.488-1.227-1.09
		c0-0.602,0.549-1.09,1.227-1.09c0.677,0,1.227,0.488,1.227,1.09C19.124,10.839,18.574,11.327,17.897,11.327z M30.299,11.327
		c-0.676,0-1.227-0.488-1.227-1.09c0-0.602,0.551-1.09,1.227-1.09c0.678,0,1.228,0.488,1.228,1.09
		C31.526,10.839,30.977,11.327,30.299,11.327z"/>
	<path fill="#78C158" d="M6.276,16.745c-1.713,0-3.103,1.32-3.103,2.949V32.74c0,1.629,1.389,2.949,3.103,2.949
		s3.103-1.32,3.103-2.949V19.694C9.378,18.065,7.989,16.745,6.276,16.745z"/>
	<path fill="#78C158" d="M41.984,16.745c-1.713,0-3.103,1.32-3.103,2.949V32.74c0,1.629,1.39,2.949,3.103,2.949
		c1.714,0,3.104-1.32,3.104-2.949V19.694C45.088,18.065,43.698,16.745,41.984,16.745z"/>
	<path fill="#78C158" d="M10.344,37.778c0,0,0.59,2.545,3.043,2.545c0.41,0,1.287,0,2.461,0v7.888c0,0.988,1.389,1.789,3.103,1.789
		s3.103-0.801,3.103-1.789v-7.888c1.326,0,2.691,0,4.017,0v7.888c0,0.988,1.39,1.789,3.103,1.789c1.714,0,3.103-0.801,3.103-1.789
		v-7.888c1.667,0,2.738,0,2.738,0s2.726-0.272,2.726-2.59c0-2.316,0-20.398,0-20.398H10.344V37.778z"/>
</g>
</svg>
