<?xml version="1.0" encoding="utf-8"?>
<!-- Generator: Adobe Illustrator 16.0.3, SVG Export Plug-In . SVG Version: 6.00 Build 0)  -->
<!DOCTYPE svg PUBLIC "-//W3C//DTD SVG 1.1//EN" "http://www.w3.org/Graphics/SVG/1.1/DTD/svg11.dtd">
<svg version="1.1" id="Camada_1" xmlns="http://www.w3.org/2000/svg" xmlns:xlink="http://www.w3.org/1999/xlink" x="0px" y="0px"
	 width="50px" height="50px" viewBox="0 0 50 50" enable-background="new 0 0 50 50" xml:space="preserve">
<path fill="#3F3F3F" d="M24.73,12.405c0,0-0.937-10.304,10.211-12.178C34.941,0.227,36.207,11.187,24.73,12.405z"/>
<path fill="#3F3F3F" d="M26.308,13.998c0,0-2.061-0.25-3.81-0.875c-1.749-0.625-5.246-2.56-10.336-0.156
	c-5.089,2.404-8.649,8.962-7.774,16.019c0.874,7.058,3.06,12.304,8.555,18.673c0,0,2.498,2.373,5.215,2.342
	c0,0,1.905-0.28,3.092-0.843c1.186-0.563,3.777-2.093,8.524-0.843c0,0,2.343,1.061,3.278,1.373c0.937,0.313,3.061,0.781,5.621-1.155
	c2.561-1.936,6.573-7.368,8.306-11.959c0,0-5.714-1.218-7.072-8.945c-0.749-7.495,5.574-10.633,5.574-10.633s-5.2-7.541-13.818-4.45
	C31.662,12.545,27.65,14.372,26.308,13.998z"/>
</svg>
