<?xml version="1.0" encoding="utf-8"?>
<!-- Generator: Adobe Illustrator 16.0.3, SVG Export Plug-In . SVG Version: 6.00 Build 0)  -->
<!DOCTYPE svg PUBLIC "-//W3C//DTD SVG 1.1//EN" "http://www.w3.org/Graphics/SVG/1.1/DTD/svg11.dtd">
<svg version="1.1" id="Camada_1" xmlns="http://www.w3.org/2000/svg" xmlns:xlink="http://www.w3.org/1999/xlink" x="0px" y="0px"
	 width="50px" height="50px" viewBox="0 0 50 50" enable-background="new 0 0 50 50" xml:space="preserve">
<g>
	<path fill="#62488A" d="M26.599,26.907c-4.428,0-5.596-0.031-5.596-0.031v8.087h5.965c0,0,3.69,0,3.69-3.997
		C30.658,30.966,31.027,26.907,26.599,26.907z"/>
	<path fill="#62488A" d="M40.941,0H9.058C4.055,0,0,4.055,0,9.058v31.883C0,45.944,4.055,50,9.058,50h31.883
		C45.944,50,50,45.944,50,40.941V9.058C50,4.055,45.944,0,40.941,0z M38.746,31.642c0,9.317-10.609,8.949-10.609,8.949H13.007V9.502
		c0,0,1.845,0,13.561,0c11.716,0,10.978,7.841,10.978,7.841c0,5.258-4.059,6.549-4.059,6.549
		C39.391,25.831,38.746,31.642,38.746,31.642z"/>
	<path fill="#62488A" d="M29.459,18.205c0,0,0.061-3.26-3.075-3.26c-3.137,0-5.35,0-5.35,0v6.55h5.904
		C26.938,21.495,29.459,20.91,29.459,18.205z"/>
</g>
</svg>
