<?xml version="1.0" encoding="utf-8"?>
<!-- Generator: Adobe Illustrator 16.0.3, SVG Export Plug-In . SVG Version: 6.00 Build 0)  -->
<!DOCTYPE svg PUBLIC "-//W3C//DTD SVG 1.1//EN" "http://www.w3.org/Graphics/SVG/1.1/DTD/svg11.dtd">
<svg version="1.1" id="Camada_1" xmlns="http://www.w3.org/2000/svg" xmlns:xlink="http://www.w3.org/1999/xlink" x="0px" y="0px"
	 width="50px" height="50px" viewBox="0 0 50 50" enable-background="new 0 0 50 50" xml:space="preserve">
<g>
	<path fill="none" d="M31.207,40.255c0-1.941-1.674-3.416-1.674-3.416c8.575-0.736,11.523-6.098,11.39-11.457
		c-0.134-5.36-2.68-7.57-2.68-7.57c1.474-4.222-0.268-6.633-0.268-6.633c-3.016,0.134-6.835,2.68-6.835,2.68
		c-5.025-1.742-12.327,0.067-12.327,0.067c-4.021-2.881-6.701-2.546-6.701-2.546c-1.675,2.931-0.335,6.415-0.335,6.415
		c-3.166,2.361-2.663,7.638-2.663,7.638c0.201,11.506,11.507,11.432,11.507,11.432c-1.507,0.527-1.658,3.316-1.658,3.316
		s-1.29,0.813-2.897,0.813s-3.551-1.34-4.489-3.016c-0.938-1.674-2.881-2.479-4.221-2.277s0.134,1.207,0.134,1.207
		c2.479,1.137,2.814,3.482,2.814,3.482c1.206,2.412,3.551,3.217,3.551,3.217c1.608,0.602,4.958,0.066,4.958,0.066v5.746
		l12.394-0.018C31.207,48.302,31.207,42.026,31.207,40.255z M9.303,37.04c-0.188,0-0.339-0.191-0.339-0.428s0.151-0.426,0.339-0.426
		s0.339,0.189,0.339,0.426S9.491,37.04,9.303,37.04z M10.283,37.894c-0.188,0-0.339-0.18-0.339-0.402
		c0-0.221,0.152-0.402,0.339-0.402s0.339,0.182,0.339,0.402C10.623,37.714,10.471,37.894,10.283,37.894z M11.326,39.376
		c-0.208,0-0.377-0.225-0.377-0.502s0.169-0.502,0.377-0.502c0.208,0,0.376,0.225,0.376,0.502S11.534,39.376,11.326,39.376z
		 M12.494,40.833c-0.188,0-0.339-0.264-0.339-0.59s0.152-0.59,0.339-0.59c0.187,0,0.339,0.264,0.339,0.59
		S12.681,40.833,12.494,40.833z M14.228,41.663c-0.313,0-0.565-0.176-0.565-0.389c0-0.217,0.253-0.391,0.565-0.391
		c0.312,0,0.565,0.174,0.565,0.391C14.793,41.487,14.54,41.663,14.228,41.663z M16.326,42.065c-0.292,0-0.528-0.232-0.528-0.516
		c0-0.285,0.236-0.516,0.528-0.516c0.292,0,0.527,0.23,0.527,0.516C16.853,41.833,16.617,42.065,16.326,42.065z M18.172,41.862
		c-0.326,0-0.591-0.223-0.591-0.502c0-0.277,0.265-0.5,0.591-0.5s0.59,0.223,0.59,0.5C18.763,41.64,18.499,41.862,18.172,41.862z"/>
	<ellipse fill="#1A171B" cx="10.283" cy="37.491" rx="0.339" ry="0.402"/>
	<ellipse fill="#1A171B" cx="12.494" cy="40.243" rx="0.339" ry="0.59"/>
	<ellipse fill="#1A171B" cx="11.326" cy="38.874" rx="0.377" ry="0.502"/>
	<ellipse fill="#1A171B" cx="9.303" cy="36.613" rx="0.339" ry="0.427"/>
	<path fill="#1A171B" d="M50,25.985C50,12.22,38.842,1.062,25.077,1.062c-13.764,0-24.923,11.159-24.923,24.923
		c0,11.448,7.717,21.09,18.232,24.014c0.411,0.029,0.427-0.58,0.427-0.58v-5.746c0,0-3.35,0.535-4.958-0.066
		c0,0-2.345-0.805-3.551-3.217c0,0-0.335-2.346-2.814-3.482c0,0-1.474-1.006-0.134-1.207s3.283,0.604,4.221,2.277
		c0.938,1.676,2.881,3.016,4.489,3.016s2.897-0.813,2.897-0.813s0.151-2.789,1.658-3.316c0,0-11.306,0.074-11.507-11.432
		c0,0-0.502-5.276,2.663-7.638c0,0-1.34-3.484,0.335-6.415c0,0,2.68-0.335,6.701,2.546c0,0,7.302-1.809,12.327-0.067
		c0,0,3.819-2.546,6.835-2.68c0,0,1.741,2.411,0.268,6.633c0,0,2.546,2.21,2.68,7.57c0.134,5.359-2.814,10.721-11.39,11.457
		c0,0,1.674,1.475,1.674,3.416c0,1.771,0,8.047,0,9.146c0.085,0.402,0.687,0.535,0.687,0.535s-0.002,0.012-0.012,0.031
		C42.339,47.007,50,37.392,50,25.985z"/>
	<ellipse fill="#1A171B" cx="14.228" cy="41.273" rx="0.565" ry="0.39"/>
	<ellipse fill="#1A171B" cx="18.172" cy="41.361" rx="0.591" ry="0.501"/>
	<ellipse fill="#1A171B" cx="16.326" cy="41.55" rx="0.528" ry="0.516"/>
</g>
</svg>
