<?xml version="1.0" encoding="utf-8"?>
<!-- Generator: Adobe Illustrator 16.0.3, SVG Export Plug-In . SVG Version: 6.00 Build 0)  -->
<!DOCTYPE svg PUBLIC "-//W3C//DTD SVG 1.1//EN" "http://www.w3.org/Graphics/SVG/1.1/DTD/svg11.dtd">
<svg version="1.1" id="Camada_1" xmlns="http://www.w3.org/2000/svg" xmlns:xlink="http://www.w3.org/1999/xlink" x="0px" y="0px"
	 width="50px" height="50px" viewBox="0 0 50 50" enable-background="new 0 0 50 50" xml:space="preserve">
<g>
	<path fill="#E24329" d="M0.052,29.23c0.067,0.297,0.209,0.588,0.484,0.809c0.023,0.018,0.064,0.05,0.12,0.092
		C0.396,29.888,0.141,29.575,0.052,29.23z"/>
	<path fill="#E24329" d="M49.466,27.953c0,0-8.15-24.979-8.353-25.493c-0.2-0.514-0.788-0.458-0.788-0.458
		c-0.579,0-0.814,0.438-0.814,0.438l-5.579,17.149h12.768c0,0,2.376,7.246,2.434,7.448c0.056,0.2,0.479,1.146,0.401,2.022
		c-0.041,0.46-0.401,0.873-0.736,1.162c0.122-0.09,0.205-0.153,0.243-0.184C49.902,29.351,49.466,27.953,49.466,27.953z"/>
	<path fill="#E24329" d="M24.81,47.634l-0.019,0.056c0,0,19.335-14.024,23.492-17.086c-0.046,0.028-0.073,0.045-0.073,0.045
		L24.81,47.634z"/>
	<polygon fill="#FC6D26" points="15.635,19.589 2.857,19.589 24.768,47.649 	"/>
	<path fill="#FCA326" d="M2.857,19.589c0,0-2.377,7.246-2.433,7.448c-0.056,0.2-0.481,1.146-0.403,2.022
		c0.001,0.012,0.003,0.022,0.004,0.035c0.006,0.046,0.014,0.092,0.026,0.136c0.089,0.345,0.344,0.657,0.604,0.9
		c0.34,0.317,0.69,0.518,0.69,0.518l0.594,0.431l22.827,16.57L2.857,19.589z"/>
	<polygon fill="#FC6D26" points="46.699,19.589 33.932,19.589 33.921,19.589 24.788,47.649 	"/>
	<path fill="#FCA326" d="M49.534,29.06c0.078-0.877-0.346-1.822-0.401-2.022c-0.058-0.202-2.434-7.448-2.434-7.448L24.788,47.649
		l0.021-0.016l23.4-16.985c0,0,0.027-0.017,0.073-0.045c0.104-0.065,0.304-0.199,0.515-0.382
		C49.133,29.933,49.493,29.52,49.534,29.06z"/>
	<path fill="#E24329" d="M33.884,19.589H15.645L10.065,2.44c0,0-0.235-0.438-0.814-0.438c0,0-0.586-0.056-0.789,0.458
		C8.262,2.975,0.111,27.953,0.111,27.953s-0.173,0.558-0.085,1.142c-0.001-0.013-0.003-0.023-0.004-0.035
		c-0.079-0.877,0.347-1.822,0.403-2.022c0.055-0.202,2.433-7.448,2.433-7.448h12.778l9.132,28.061L1.94,31.079
		c5.204,3.815,22.845,16.61,22.845,16.61l-5.594-17.195l5.594,17.155L33.884,19.589z"/>
</g>
</svg>
