<?xml version="1.0" encoding="utf-8"?>
<!-- Generator: Adobe Illustrator 16.0.3, SVG Export Plug-In . SVG Version: 6.00 Build 0)  -->
<!DOCTYPE svg PUBLIC "-//W3C//DTD SVG 1.1//EN" "http://www.w3.org/Graphics/SVG/1.1/DTD/svg11.dtd">
<svg version="1.1" id="Camada_1" xmlns="http://www.w3.org/2000/svg" xmlns:xlink="http://www.w3.org/1999/xlink" x="0px" y="0px"
	 width="50px" height="50px" viewBox="0 0 50 50" enable-background="new 0 0 50 50" xml:space="preserve">
<path fill="#61DAFB" d="M33.91,19.988C27.025,8.079,17.417,0.752,12.452,3.623C7.487,6.494,9.044,18.476,15.93,30.385
	S32.424,49.619,37.388,46.75C42.354,43.878,40.797,31.896,33.91,19.988z M36.265,44.79c-3.873,2.239-12.085-4.717-18.342-15.537
	c-6.258-10.822-8.19-21.409-4.317-23.649c3.874-2.239,12.085,4.718,18.344,15.54C38.205,31.964,40.138,42.551,36.265,44.79z"/>
<path fill="#61DAFB" d="M33.727,30.396c6.871-11.917,8.414-23.9,3.445-26.765c-4.968-2.865-14.566,4.474-21.438,16.391
	c-6.872,11.917-8.415,23.901-3.446,26.764C17.256,49.653,26.855,42.314,33.727,30.396z M13.421,44.836
	c-3.875-2.235-1.956-12.825,4.289-23.654C23.955,10.354,32.157,3.387,36.034,5.621c3.875,2.235,1.955,12.825-4.29,23.654
	C25.501,40.104,17.297,47.071,13.421,44.836z"/>
<path fill="#61DAFB" d="M24.911,35.664c13.756-0.001,24.908-4.654,24.906-10.389c-0.002-5.735-11.153-10.382-24.911-10.379
	C11.15,14.899-0.001,19.551,0,25.287C0.001,31.021,11.154,35.668,24.911,35.664z M2.257,25.292
	c-0.001-4.473,10.131-8.102,22.631-8.105c12.499-0.003,22.634,3.622,22.636,8.095c0,4.474-10.131,8.103-22.632,8.107
	C12.392,33.391,2.258,29.768,2.257,25.292z"/>
<circle fill="#61DAFB" cx="24.855" cy="25.191" r="4.648"/>
</svg>
