<?xml version="1.0" encoding="utf-8"?>
<!-- Generator: Adobe Illustrator 16.0.3, SVG Export Plug-In . SVG Version: 6.00 Build 0)  -->
<!DOCTYPE svg PUBLIC "-//W3C//DTD SVG 1.1//EN" "http://www.w3.org/Graphics/SVG/1.1/DTD/svg11.dtd">
<svg version="1.1" id="Camada_1" xmlns="http://www.w3.org/2000/svg" xmlns:xlink="http://www.w3.org/1999/xlink" x="0px" y="0px"
	 width="50px" height="50px" viewBox="0 0 50 50" enable-background="new 0 0 50 50" xml:space="preserve">
<polygon fill="#FFFFFF" points="3.104,12.615 24.688,0.154 46.271,12.615 46.271,37.539 24.688,50 3.104,37.539 "/>
<polygon fill="#8ED5FA" points="23.918,3.77 6.305,13.719 12.517,17.384 23.919,11.092 "/>
<polygon fill="#8ED5FA" points="25.297,3.77 42.91,13.719 36.698,17.384 25.296,11.092 "/>
<polygon fill="#8ED5FA" points="23.962,46.023 6.789,36.304 13.123,32.545 23.964,38.577 "/>
<polygon fill="#8ED5FA" points="25.297,46.023 42.486,36.321 36.104,32.545 25.295,38.573 "/>
<polygon fill="#8ED5FA" points="5.558,15.01 5.558,35.288 11.851,31.656 11.851,18.671 "/>
<polygon fill="#8ED5FA" points="43.712,15.01 43.712,35.288 37.419,31.656 37.419,18.671 "/>
<polygon fill="#1C78C0" points="24.634,12.407 14.109,18.127 24.634,24.22 35.073,18.185 "/>
<polygon fill="#1C78C0" points="35.789,19.529 25.378,25.649 25.378,36.66 35.817,30.97 "/>
<polygon fill="#1C78C0" points="13.47,19.529 23.881,25.649 23.881,36.66 13.442,30.97 "/>
</svg>
