<?xml version="1.0" encoding="utf-8"?>
<!-- Generator: Adobe Illustrator 16.0.3, SVG Export Plug-In . SVG Version: 6.00 Build 0)  -->
<!DOCTYPE svg PUBLIC "-//W3C//DTD SVG 1.1//EN" "http://www.w3.org/Graphics/SVG/1.1/DTD/svg11.dtd">
<svg version="1.1" id="Camada_1" xmlns="http://www.w3.org/2000/svg" xmlns:xlink="http://www.w3.org/1999/xlink" x="0px" y="0px"
	 width="50px" height="50px" viewBox="0 0 50 50" enable-background="new 0 0 50 50" xml:space="preserve">
<g>
	<linearGradient id="SVGID_1_" gradientUnits="userSpaceOnUse" x1="17.9927" y1="-22.4346" x2="29.8482" y2="57.8181">
		<stop  offset="0" style="stop-color:#0E3189"/>
		<stop  offset="0.9409" style="stop-color:#001042"/>
	</linearGradient>
	<rect fill="url(#SVGID_1_)" width="50" height="50"/>
	<g>
		<path fill="#FFFFFF" d="M28.064,19.93c0.385-0.455,1.16-0.781,2.263-0.781c1.021,0,2.258,0.14,3.425,0.466l0.968-5.25
			c-1.995-0.712-4.065-0.91-6.201-0.91c-2.135,0-3.815,0.327-5.168,1.109c-1.359,0.77-2.264,1.622-2.778,2.847
			c-0.519,1.097-0.775,2.963-0.775,5.286v2.076h-4.142v6.009h4.142V50c1.546,0,6.671,0,7.554,0V30.781h5.49v-6.009h-5.49v-1.948
			C27.352,21.342,27.551,20.444,28.064,19.93z"/>
	</g>
</g>
</svg>
