<?xml version="1.0" encoding="utf-8"?>
<!-- Generator: Adobe Illustrator 16.0.3, SVG Export Plug-In . SVG Version: 6.00 Build 0)  -->
<!DOCTYPE svg PUBLIC "-//W3C//DTD SVG 1.1//EN" "http://www.w3.org/Graphics/SVG/1.1/DTD/svg11.dtd">
<svg version="1.1" id="Camada_1" xmlns="http://www.w3.org/2000/svg" xmlns:xlink="http://www.w3.org/1999/xlink" x="0px" y="0px"
	 width="50px" height="50px" viewBox="0 0 50 50" enable-background="new 0 0 50 50" xml:space="preserve">
<g>
	<g>
		<defs>
			<path id="SVGID_1_" d="M50,50c-1.916,0-48.417,0-50,0V0h50V50z"/>
		</defs>
		<clipPath id="SVGID_2_">
			<use xlink:href="#SVGID_1_"  overflow="visible"/>
		</clipPath>
		<g clip-path="url(#SVGID_2_)">
			<image overflow="visible" width="58" height="59" xlink:href="FA26F7E2.png"  transform="matrix(1 0 0 1 -3.5 -4.5)">
			</image>
		</g>
	</g>
	<path fill-rule="evenodd" clip-rule="evenodd" fill="#FCFCFC" d="M35.076,11.747c-6.566,0-13.157,0-19.723,0
		c-2.348,0-3.562,1.237-3.562,3.584c0,3.249,0,6.509,0,9.805c0,3.26,0,6.591,0,9.886c0,2.266,1.248,3.515,3.446,3.515
		c6.636,0,13.224,0,19.839,0c2.291,0,3.55-1.249,3.55-3.55c0-6.591,0-13.146,0-19.725C38.626,12.984,37.367,11.747,35.076,11.747z
		 M32.902,14.777c2.66,0,2.66,0,2.66,2.659c0,2.601,0,2.601-2.614,2.601c-2.637,0-2.637,0-2.637-2.635
		C30.312,14.777,30.312,14.777,32.902,14.777z M25.226,19.945c2.797,0,5.202,2.404,5.157,5.19c-0.023,2.868-2.404,5.238-5.25,5.18
		c-2.821-0.059-5.203-2.439-5.131-5.238C20.068,22.269,22.428,19.945,25.226,19.945z M35.563,33.889
		c-0.023,1.248-0.349,1.605-1.596,1.605c-2.926,0-5.85,0-8.775,0c-2.902,0-5.827,0-8.752,0c-1.228,0-1.573-0.357-1.573-1.605
		c0-3.227,0.011-6.509-0.045-9.769c0-0.914,0.255-1.133,1.109-1.1c1.225,0.093,1.25,0.047,1.109,1.238
		c-0.473,4.138,2.393,8.162,6.475,8.96c4.209,0.81,8.416-1.723,9.573-5.746c0.348-1.261,0.452-2.602,0.187-3.851
		c-0.094-0.473,0.023-0.554,0.438-0.554c1.851-0.14,1.851-0.175,1.851,1.733C35.563,27.806,35.563,30.859,35.563,33.889z"/>
</g>
</svg>
