<?xml version="1.0" encoding="utf-8"?>
<!-- Generator: Adobe Illustrator 16.0.3, SVG Export Plug-In . SVG Version: 6.00 Build 0)  -->
<!DOCTYPE svg PUBLIC "-//W3C//DTD SVG 1.1//EN" "http://www.w3.org/Graphics/SVG/1.1/DTD/svg11.dtd">
<svg version="1.1" id="Camada_1" xmlns="http://www.w3.org/2000/svg" xmlns:xlink="http://www.w3.org/1999/xlink" x="0px" y="0px"
	 width="50px" height="50px" viewBox="0 0 50 50" enable-background="new 0 0 50 50" xml:space="preserve">
<g>
	<g>
		<defs>
			<path id="SVGID_1_" d="M50.015,25.011c0,13.782-11.156,24.948-24.937,24.948c-13.758,0-24.926-11.166-24.926-24.948
				c0-13.769,11.168-24.937,24.926-24.937C38.858,0.074,50.015,11.242,50.015,25.011z"/>
		</defs>
		<clipPath id="SVGID_2_">
			<use xlink:href="#SVGID_1_"  overflow="visible"/>
		</clipPath>
		<g clip-path="url(#SVGID_2_)">
			<image overflow="visible" width="59" height="59" xlink:href="52ADC7B8.png"  transform="matrix(1 0 0 1 -4.5 -4.5)">
			</image>
		</g>
	</g>
	<path fill-rule="evenodd" clip-rule="evenodd" fill="#FCFCFC" d="M35,11.555c-6.599,0-13.223,0-19.822,0
		c-2.36,0-3.58,1.243-3.58,3.602c0,3.265,0,6.542,0,9.854c0,3.276,0,6.624,0,9.935c0,2.278,1.254,3.533,3.463,3.533
		c6.67,0,13.291,0,19.938,0c2.304,0,3.569-1.255,3.569-3.567c0-6.624,0-13.212,0-19.824C38.569,12.798,37.304,11.555,35,11.555z
		 M32.816,14.6c2.674,0,2.674,0,2.674,2.672c0,2.614,0,2.614-2.628,2.614c-2.649,0-2.649,0-2.649-2.648
		C30.213,14.6,30.213,14.6,32.816,14.6z M25.102,19.794c2.811,0,5.227,2.417,5.183,5.217c-0.022,2.882-2.417,5.265-5.277,5.206
		c-2.835-0.059-5.229-2.452-5.157-5.265C19.917,22.129,22.289,19.794,25.102,19.794z M35.49,33.808
		c-0.024,1.255-0.351,1.614-1.604,1.614c-2.94,0-5.879,0-8.819,0c-2.917,0-5.856,0-8.796,0c-1.234,0-1.581-0.359-1.581-1.614
		c0-3.243,0.011-6.541-0.046-9.818c0-0.918,0.256-1.139,1.115-1.105c1.231,0.094,1.256,0.048,1.115,1.244
		c-0.475,4.159,2.405,8.203,6.508,9.005c4.23,0.813,8.458-1.731,9.621-5.775c0.35-1.267,0.455-2.615,0.188-3.87
		c-0.095-0.475,0.022-0.556,0.44-0.556c1.86-0.141,1.86-0.176,1.86,1.742C35.49,27.694,35.49,30.764,35.49,33.808z"/>
</g>
</svg>
