<?xml version="1.0" encoding="utf-8"?>
<!-- Generator: Adobe Illustrator 16.0.3, SVG Export Plug-In . SVG Version: 6.00 Build 0)  -->
<!DOCTYPE svg PUBLIC "-//W3C//DTD SVG 1.1//EN" "http://www.w3.org/Graphics/SVG/1.1/DTD/svg11.dtd">
<svg version="1.1" id="Camada_1" xmlns="http://www.w3.org/2000/svg" xmlns:xlink="http://www.w3.org/1999/xlink" x="0px" y="0px"
	 width="50px" height="50px" viewBox="0 0 50 50" enable-background="new 0 0 50 50" xml:space="preserve">
<g>
	<linearGradient id="SVGID_1_" gradientUnits="userSpaceOnUse" x1="24.9995" y1="-27.4644" x2="24.9995" y2="54.757">
		<stop  offset="0.3172" style="stop-color:#20A9E5"/>
		<stop  offset="0.672" style="stop-color:#1686C3"/>
	</linearGradient>
	<rect fill="url(#SVGID_1_)" width="50" height="50"/>
	<g>
		<g>
			<path fill-rule="evenodd" clip-rule="evenodd" fill="#FFFFFF" d="M9.852,35.188c2.38,0.152,4.689-0.199,6.858-1.178
				c0.98-0.421,1.867-0.957,2.753-1.645c-1.038-0.036-1.983-0.281-2.846-0.712c-1.47-0.747-2.508-1.925-3.138-3.512
				c-0.14-0.35-0.14-0.35,0.246-0.327c1.049,0.105,1.819,0.083,2.414-0.162c-0.571-0.197-1.107-0.292-1.55-0.596
				c-2.194-1.214-3.36-3.091-3.559-5.599c-0.023-0.292,0.059-0.328,0.327-0.198c0.77,0.42,1.609,0.606,2.578,0.711
				c-0.419-0.385-0.782-0.688-1.108-1.014c-1.82-1.96-2.252-5.075-1.038-7.467c0.164-0.314,0.221-0.314,0.443-0.058
				c3.067,3.522,6.883,5.669,11.478,6.403c0.467,0.082,0.98,0.094,1.458,0.187c0.327,0.047,0.361-0.105,0.314-0.35
				c-0.478-2.764,0.818-5.505,3.267-6.881c2.495-1.458,5.738-0.991,7.745,0.968c0.234,0.198,0.455,0.245,0.725,0.175
				c1.235-0.28,2.391-0.747,3.475-1.354c0.094-0.023,0.163-0.093,0.282-0.175c-0.468,1.551-1.402,2.695-2.778,3.627
				c1.271-0.128,2.415-0.49,3.547-0.933c0.023,0.163-0.093,0.256-0.164,0.372c-0.769,1.062-1.668,2.007-2.729,2.789
				c-0.198,0.164-0.246,0.292-0.246,0.549c0.083,4.816-1.457,9.109-4.537,12.843c-2.893,3.394-6.59,5.447-10.989,6.158
				c-4.665,0.735-9.052-0.058-13.088-2.543C9.945,35.233,9.887,35.188,9.852,35.188z"/>
		</g>
	</g>
</g>
</svg>
