<?xml version="1.0" encoding="utf-8"?>
<!-- Generator: Adobe Illustrator 16.0.3, SVG Export Plug-In . SVG Version: 6.00 Build 0)  -->
<!DOCTYPE svg PUBLIC "-//W3C//DTD SVG 1.1//EN" "http://www.w3.org/Graphics/SVG/1.1/DTD/svg11.dtd">
<svg version="1.1" id="Camada_1" xmlns="http://www.w3.org/2000/svg" xmlns:xlink="http://www.w3.org/1999/xlink" x="0px" y="0px"
	 width="50px" height="50px" viewBox="0 0 50 50" enable-background="new 0 0 50 50" xml:space="preserve">
<g>
	<linearGradient id="SVGID_1_" gradientUnits="userSpaceOnUse" x1="24.4946" y1="-19.5889" x2="25.401" y2="58.3556">
		<stop  offset="0.1322" style="stop-color:#01CF2D"/>
		<stop  offset="0.794" style="stop-color:#009804"/>
	</linearGradient>
	<path fill="url(#SVGID_1_)" d="M50.002,25.088c0,13.769-11.202,24.906-24.988,24.906c-13.81,0-24.988-11.137-24.988-24.906
		c0-13.747,11.178-24.883,24.988-24.883C38.8,0.205,50.002,11.342,50.002,25.088z"/>
	<g>
		<path fill-rule="evenodd" clip-rule="evenodd" fill="#FFFFFF" d="M39.825,21.538C38.173,14.636,32.211,9.95,25.014,9.846
			c-0.955,0.033-1.979,0.115-2.911,0.3C12.02,12.153,6.827,23.255,11.694,32.199c0.186,0.242,0.186,0.477,0.14,0.741
			c-0.699,2.31-1.351,4.699-1.98,7.03c-0.117,0.418-0.117,0.418,0.28,0.303c2.469-0.661,4.902-1.287,7.358-1.891
			c0.21-0.069,0.373-0.069,0.548,0.035c3.156,1.601,6.486,2.029,9.98,1.39C36.355,38.208,41.816,29.75,39.825,21.538z
			 M27.145,37.374c-0.733,0.139-1.408,0.208-1.757,0.149c-2.679,0-4.844-0.579-6.847-1.739c-0.279-0.175-0.5-0.232-0.769-0.128
			c-1.373,0.336-2.724,0.694-4.075,1.044c-0.28,0.093-0.314,0.045-0.256-0.243c0.373-1.254,0.699-2.529,1.095-3.828
			c0.092-0.35,0.069-0.604-0.152-0.895c-2.759-4.455-2.632-9.964,0.455-14.094c3.202-4.269,7.615-6.044,12.843-4.931
			c5.159,1.08,8.465,4.432,9.653,9.547C38.998,29.265,34.247,36.225,27.145,37.374z"/>
		<path fill-rule="evenodd" clip-rule="evenodd" fill="#FFFFFF" d="M28.984,32.199c-0.523,0.046-1.062-0.059-1.572-0.22
			c-3.48-1.011-6.112-3.133-8.22-6.011c-0.792-1.066-1.537-2.215-1.77-3.561c-0.327-1.578,0.174-2.97,1.374-4.048
			c0.396-0.372,1.548-0.545,2.025-0.313c0.14,0.14,0.233,0.266,0.326,0.417c0.442,1.068,0.897,2.066,1.327,3.098
			c0.07,0.209,0.059,0.418-0.058,0.638c-0.233,0.465-0.594,0.859-0.931,1.243c-0.291,0.254-0.291,0.545-0.093,0.834
			c1.247,2.077,2.923,3.561,5.181,4.431c0.326,0.14,0.583,0.093,0.792-0.173c0.384-0.441,0.77-0.93,1.13-1.404
			c0.221-0.303,0.523-0.349,0.849-0.221c0.748,0.349,1.47,0.695,2.19,1.02c0.187,0.094,0.325,0.175,0.512,0.233
			c0.746,0.372,0.746,0.429,0.654,1.229c-0.096,1.578-1.307,2.38-2.702,2.773C29.625,32.245,29.324,32.245,28.984,32.199z"/>
	</g>
</g>
</svg>
